<?xml version="1.0" encoding="UTF-8"?>
<svg id="_レイヤー_2" data-name="レイヤー_2" xmlns="http://www.w3.org/2000/svg" viewBox="0 0 467.69775 174.20166">
  <g id="_レイヤー_1-2" data-name="レイヤー_1">
    <g>
      <path d="M64.66895,81.37354c0-4.05664,5.25-4.53418,9.06836-4.53418,23.86328,0,49.39697-25.53369,49.39697-43.19238,0-15.27246-7.39795-22.66992-26.25-22.66992C52.7373,10.97705,11.21533,44.62402,11.21533,66.33984c0,2.14746,1.90918,4.05664,1.90918,6.44287,0,3.81836-3.34082,6.20459-6.92041,6.20459-3.81787,0-6.2041-4.05664-6.2041-7.63623C0,36.0332,47.48779,3.34082,100.46387,3.34082c20.99951,0,32.69287,9.06787,32.69287,28.87451,0,24.5791-31.97705,55.12402-59.6582,55.12402-6.20459,0-8.82959-2.14746-8.82959-5.96582ZM90.20264,29.59033c0,2.625-3.10205,5.25-6.68164,8.59082-6.2041,5.96582-15.51123,15.51123-26.01074,33.88574-19.56787,34.36328-20.99951,51.54443-20.99951,63.95361,0,2.14746,0,5.48828-3.10254,5.48828-3.10205,0-8.11328-2.625-8.11328-7.15869,0-4.29541,3.10205-29.8291,22.19287-64.43066,12.40869-21.95459,21.9541-34.60205,28.39697-40.56787,3.81836-3.5791,6.44336-4.77246,9.30664-4.77246,3.57959,0,5.01123,2.14746,5.01123,5.01123Z"/>
      <path d="M142.93652,83.99854c0,1.90918,0,7.39746,3.81836,7.39746,9.78369,0,19.09033-6.68164,21.47656-6.68164,2.38672,0,4.29541,1.67041,4.29541,4.05664,0,2.38672-3.10205,5.25-10.97705,8.82959-8.8291,4.05664-19.80615,4.05664-20.76074,4.05664-5.01123,14.31787-15.98828,33.16992-32.69287,33.16992-6.68164,0-13.36328-5.01123-13.36328-15.27246,0-22.19287,18.61328-43.43115,35.31738-43.43115,8.82959,0,12.88623,4.29541,12.88623,7.875ZM104.75537,119.55469c0,4.29541,2.86377,6.92041,5.96582,6.92041,9.30664,0,21.47705-21.47705,21.47705-28.63574,0-.71631-3.57959-1.90918-3.57959-5.01123,0-2.38672.71582-4.29541.71582-5.25,0-.47754-.23828-.71582-.71582-.71582-10.26123,0-23.86328,17.18115-23.86328,32.69238Z"/>
      <path d="M177.05762,79.22607c0,2.86328-3.34082,9.06787-3.34082,11.21533,0,.47754,0,.71631.47754.71631.9541,0,1.67041-.71631,2.86328-1.90918,8.82959-9.30664,15.75-14.55664,21.71582-14.55664,4.53369,0,8.59033,2.86377,8.59033,8.35205,0,7.39746-2.38623,14.31787-8.35205,14.31787-2.14746,0-4.53369-1.90918-4.53369-4.53369,0-2.38672,1.67041-5.25,1.67041-6.44336,0-.95459-.71631-1.67041-2.14795-1.67041-3.34082,0-19.09033,15.27246-26.72656,27.2041-5.48877,8.59082-9.78418,22.43164-11.93164,22.43164-2.38623,0-5.48877-3.10254-5.48877-5.48877,0-2.625,3.81836-12.88623,7.39795-21.71533,3.81787-9.06836,7.39746-18.13623,8.59033-22.90869,1.67041-5.72754,3.34082-8.59082,6.68213-8.59082,2.38623,0,4.53369,1.67041,4.53369,3.57959Z"/>
      <path d="M223.34961,61.32861c2.38623,0,4.77246-.47754,7.39746-.95459,6.92041-12.40918,11.45459-20.99951,17.18164-28.87451,4.05664-5.72705,6.68164-8.11377,9.78369-8.11377,3.10254,0,5.01123,1.43213,5.01123,4.29541,0,2.86377-.47705,4.77295-5.01123,8.35205-4.05664,3.34131-5.25,6.68213-13.36328,20.28418,5.01123-1.43213,10.02246-2.625,15.27246-2.625,8.35205,0,12.64746,2.86328,12.64746,7.63623,0,4.29541-4.29541,9.30664-7.39746,9.30664-2.14795,0-2.625-.71582-2.625-2.14795,0-1.43164.47705-2.38623.47705-3.57959,0-1.90869-3.10205-2.38623-6.68164-2.38623-5.25,0-11.69287,1.90918-18.37451,4.29541-12.88623,23.14746-26.01074,52.02197-26.01074,64.43066,0,3.10254,1.43164,4.29541,1.43164,6.44336,0,1.90869-1.67041,4.77246-5.01123,4.77246-3.57959,0-5.96582-3.57959-5.96582-9.54541,0-13.84033,11.4541-39.85156,22.90869-62.52148-1.67041.23877-3.34082.23877-5.01123.23877-7.15918,0-10.02246-1.67041-10.02246-5.01123,0-3.10254,2.38623-5.96582,6.2041-5.96582,3.57959,0,4.29541,1.67041,7.15918,1.67041Z"/>
      <path d="M244.34668,79.94189h5.96582c6.92041-16.22705,11.45459-25.29492,21.23828-42.47656,11.21582-19.56787,28.87451-34.60156,38.18115-34.60156,6.92041,0,12.88623,3.5791,12.88623,7.63623,0,4.77246-3.34082,8.8291-6.20459,8.8291-2.14746,0-3.81787-1.19287-3.81787-3.10205,0-2.14795-.47754-3.34082-3.10254-3.34082-5.25,0-16.22705,7.63623-27.68115,26.72656-7.15918,11.93164-11.45459,20.28369-20.76123,40.3291h26.48828c2.38623,0,4.05664,1.90869,4.05664,3.81787s-1.67041,3.34082-3.34082,3.34082c-10.49951,0-22.19287.95459-31.26074,1.67041-10.73828,24.10205-20.99951,56.07861-20.99951,72.7832,0,4.05664.95459,4.05664.95459,8.35156,0,1.90918-2.38623,4.2959-4.77295,4.2959-2.38623,0-5.48828-2.38672-5.48828-9.06836,0-19.09033,10.26123-54.16943,19.3291-75.40771-5.72705,0-7.39746,0-7.39746-2.86328,0-3.57959,2.14746-6.92041,5.72705-6.92041Z"/>
      <path d="M318.08301,83.99854c0,1.90918,0,7.39746,3.81836,7.39746,9.78369,0,19.09033-6.68164,21.47656-6.68164,2.38672,0,4.29541,1.67041,4.29541,4.05664,0,2.38672-3.10205,5.25-10.97705,8.82959-8.8291,4.05664-19.80615,4.05664-20.76074,4.05664-5.01123,14.31787-15.98828,33.16992-32.69287,33.16992-6.68164,0-13.36328-5.01123-13.36328-15.27246,0-22.19287,18.61328-43.43115,35.31738-43.43115,8.82959,0,12.88623,4.29541,12.88623,7.875ZM279.90186,119.55469c0,4.29541,2.86377,6.92041,5.96582,6.92041,9.30664,0,21.47705-21.47705,21.47705-28.63574,0-.71631-3.57959-1.90918-3.57959-5.01123,0-2.38672.71582-4.29541.71582-5.25,0-.47754-.23828-.71582-.71582-.71582-10.26123,0-23.86328,17.18115-23.86328,32.69238Z"/>
      <path d="M384.41943,95.69141c2.86377-3.57959,4.77295-5.96582,7.39746-5.96582,2.14795,0,3.34131,1.43213,3.34131,3.34082,0,2.14795-.95459,3.57959-3.81836,6.92041-11.21582,13.60205-31.97656,34.60156-45.57861,34.60156-7.875,0-17.18164-6.44287-17.18164-17.41992,0-20.28369,15.51123-57.0332,29.11328-80.41895C372.01074,12.17041,382.74902,0,396.1123,0c4.53418,0,9.30664,5.01123,9.30664,9.78369,0,6.92041-3.81787,21.47705-20.99951,43.43115-15.51123,19.56787-26.72656,27.44287-37.22656,35.79492-4.29541,6.92041-7.63623,20.28369-7.63623,25.53369,0,6.92041,2.625,11.21582,7.875,11.21582,10.26123,0,28.39697-18.61328,36.98779-30.06787ZM366.28369,39.85156c-12.64795,22.19287-15.51123,32.21533-16.22705,36.03369,3.10205-1.43213,15.03369-11.93164,27.91992-29.35205,14.0791-19.3291,16.94287-26.48828,16.94287-32.21533,0-2.38623-1.19336-3.34082-3.57959-3.34082-3.10205,0-12.88623,6.68164-25.05615,28.87451Z"/>
      <path d="M426.17773,95.69141c2.86377-3.57959,4.77246-5.96582,7.39746-5.96582,2.14795,0,3.34082,1.43213,3.34082,3.34082,0,2.14795-.95459,3.57959-3.5791,6.92041-11.45459,13.60205-32.93164,33.88574-44.86328,33.88574-4.05664,0-9.78369-4.29541-9.78369-12.16992,0-10.5,12.17041-33.88623,14.0791-37.46533,2.625-4.53418,4.77295-8.35205,7.875-8.35205,2.14795,0,5.48877,1.67041,5.48877,4.29492,0,2.625-2.38672,5.01172-4.53418,8.59082-5.25,9.06836-12.40869,25.77246-12.40869,31.02246,0,2.14746,1.19287,4.77246,4.29541,4.77246,6.91992,0,24.10156-17.41992,32.69238-28.87451ZM430.9502,39.85156c0,5.72705-6.44287,9.06787-9.30664,9.06787-2.86328,0-4.05664-5.01123-4.05664-8.35205s3.34082-7.39746,8.11377-7.39746c2.38623,0,5.24951,1.90918,5.24951,6.68164Z"/>
      <path d="M431.90283,134.82715c-6.68164,0-13.36328-5.01123-13.36328-15.27246,0-22.19287,18.61328-43.43115,35.31738-43.43115,8.82959,0,13.84082,5.48877,13.84082,13.84082,0,15.51123-14.55664,44.86279-35.79492,44.86279ZM428.56201,119.55469c0,4.29541,2.86377,6.92041,5.96582,6.92041,9.30664,0,21.47705-21.47705,21.47705-28.63574,0-.71631-3.57959-1.90918-3.57959-5.01123,0-2.38672.71582-4.29541.71582-5.25,0-.47754-.23828-.71582-.71582-.71582-10.26123,0-23.86328,17.18115-23.86328,32.69238Z"/>
    </g>
  </g>
</svg>